<svg width="37" height="36" viewBox="0 0 37 36" fill="none" xmlns="http://www.w3.org/2000/svg">
<circle cx="18.5" cy="18" r="15" fill="#FF9D00"/>
<path fill-rule="evenodd" clip-rule="evenodd" d="M18.2026 21.5606C20.2904 21.5606 21.9828 19.8681 21.9828 17.7803C21.9828 15.6925 20.2904 14 18.2026 14C16.4009 14 14.8936 15.2604 14.5143 16.9476L14.8358 16.626C15.2092 16.2526 15.8145 16.2526 16.1879 16.626C16.5613 16.9994 16.5613 17.6047 16.1879 17.9781L14.1829 19.983C14.1755 19.991 14.1679 19.9988 14.1602 20.0066C13.7875 20.3793 13.1836 20.3799 12.8101 20.0086C12.8093 20.0078 12.8085 20.007 12.8077 20.0062M12.8067 20.0052L10.78 17.9785C10.4067 17.6051 10.4067 16.9998 10.78 16.6264C11.1534 16.253 11.7587 16.253 12.1321 16.6264L12.4783 16.9726C12.8712 14.1626 15.2843 12 18.2026 12C21.3949 12 23.9828 14.5879 23.9828 17.7803C23.9828 20.9727 21.3949 23.5606 18.2026 23.5606C17.6503 23.5606 17.2026 23.1129 17.2026 22.5606C17.2026 22.0083 17.6503 21.5606 18.2026 21.5606" fill="white"/>
</svg>
