<svg width="37" height="36" viewBox="0 0 37 36" fill="none" xmlns="http://www.w3.org/2000/svg">
<path d="M3.5 18C3.5 9.71573 10.2157 3 18.5 3C26.7843 3 33.5 9.71573 33.5 18C33.5 26.2843 26.7843 33 18.5 33C10.2157 33 3.5 26.2843 3.5 18Z" fill="#E51F1F"/>
<path fill-rule="evenodd" clip-rule="evenodd" d="M23.8033 14.818C24.3891 14.2322 24.3891 13.2825 23.8033 12.6967C23.2175 12.1109 22.2677 12.1109 21.6819 12.6967L18.4999 15.8787L15.318 12.6968C14.7322 12.111 13.7825 12.111 13.1967 12.6968C12.6109 13.2826 12.6109 14.2323 13.1967 14.8181L16.3786 18L13.1967 21.1819C12.6109 21.7677 12.6109 22.7175 13.1967 23.3033C13.7825 23.8891 14.7322 23.8891 15.318 23.3033L18.4999 20.1213L21.682 23.3034C22.2678 23.8892 23.2175 23.8892 23.8033 23.3034C24.3891 22.7176 24.3891 21.7679 23.8033 21.1821L20.6212 18L23.8033 14.818Z" fill="white"/>
</svg>
