<svg width="37" height="36" viewBox="0 0 37 36" fill="none" xmlns="http://www.w3.org/2000/svg">
<path d="M33.5 18C33.5 26.2843 26.7843 33 18.5 33C10.2157 33 3.5 26.2843 3.5 18C3.5 9.71573 10.2157 3 18.5 3C26.7843 3 33.5 9.71573 33.5 18Z" fill="#0DA93C"/>
<path fill-rule="evenodd" clip-rule="evenodd" d="M24.0607 13.9393C24.6464 14.5251 24.6464 15.4749 24.0607 16.0607L18.0607 22.0607C17.4749 22.6464 16.5251 22.6464 15.9393 22.0607L12.9393 19.0607C12.3536 18.4749 12.3536 17.5251 12.9393 16.9393C13.5251 16.3536 14.4749 16.3536 15.0607 16.9393L17 18.8787L21.9393 13.9393C22.5251 13.3536 23.4749 13.3536 24.0607 13.9393Z" fill="white"/>
</svg>
